<svg xmlns="http://www.w3.org/2000/svg" version="1.1" xmlns:xlink="http://www.w3.org/1999/xlink" viewBox="0 0 200 200"><rect width="200" height="200" fill="url('#gradient')"></rect><defs><linearGradient id="gradient" gradientTransform="rotate(45 0.5 0.5)"><stop offset="0%" stop-color="#a7a6a4"></stop><stop offset="100%" stop-color="#3e3d3d"></stop></linearGradient></defs><g><g fill="#211f1d" transform="matrix(3.055702917771883,0,0,3.055702917771883,10.087113678850613,122.44777031223084)" stroke="#eeebe9" stroke-width="0"><path d="M9.98 0L9.15-2.66L4.45-2.66L3.63 0L-0.03 0L5.19-14.22L8.41-14.22L13.66 0L9.98 0ZM6.80-10.23L5.27-5.30L8.33-5.30L6.80-10.23ZM16.58-3.19L16.58-3.19Q17.36-3.19 17.88-2.73Q18.40-2.27 18.40-1.54Q18.40-0.82 17.88-0.36Q17.36 0.11 16.58 0.11L16.58 0.11Q15.79 0.11 15.28-0.36Q14.77-0.83 14.77-1.54Q14.77-2.26 15.28-2.72Q15.79-3.19 16.58-3.19ZM23.44-14.22L26.26-3.87L29.09-14.22L32.92-14.22L28.13 0L24.38 0L19.64-14.22L23.44-14.22ZM42.60 0L39.31 0Q39.13-0.32 38.99-0.95L38.99-0.95Q38.09 0.20 36.46 0.20L36.46 0.20Q34.96 0.20 33.92-0.71Q32.87-1.61 32.87-2.98L32.87-2.98Q32.87-4.70 34.14-5.58Q35.41-6.46 37.83-6.46L37.83-6.46L38.85-6.46L38.85-7.01Q38.85-8.47 37.59-8.47L37.59-8.47Q36.42-8.47 36.42-7.31L36.42-7.31L33.13-7.31Q33.13-8.85 34.43-9.80Q35.73-10.76 37.75-10.76Q39.78-10.76 40.95-9.78Q42.12-8.79 42.15-7.07L42.15-7.07L42.15-2.39Q42.17-0.94 42.60-0.17L42.60-0.17L42.60 0ZM37.25-2.15L37.25-2.15Q37.86-2.15 38.27-2.41Q38.67-2.68 38.85-3.01L38.85-3.01L38.85-4.70L37.89-4.70Q36.17-4.70 36.17-3.15L36.17-3.15Q36.17-2.71 36.47-2.43Q36.78-2.15 37.25-2.15ZM43.91-10.57L46.99-10.57L47.10-9.33Q48.19-10.76 50.12-10.76L50.12-10.76Q51.77-10.76 52.58-9.78Q53.40-8.79 53.43-6.81L53.43-6.81L53.43 0L50.13 0L50.13-6.67Q50.13-7.47 49.80-7.85Q49.48-8.22 48.63-8.22L48.63-8.22Q47.67-8.22 47.20-7.46L47.20-7.46L47.20 0L43.91 0L43.91-10.57ZM58.72-10.57L58.72 0L55.42 0L55.42-10.57L58.72-10.57ZM55.22-13.29L55.22-13.29Q55.22-13.99 55.73-14.44Q56.24-14.89 57.05-14.89Q57.86-14.89 58.37-14.44Q58.88-13.99 58.88-13.29Q58.88-12.59 58.37-12.14Q57.86-11.69 57.05-11.69Q56.24-11.69 55.73-12.14Q55.22-12.59 55.22-13.29Z"></path></g></g></svg>